#define player_play2_width 9
#define player_play2_height 9
static unsigned char player_play2_bits[] = {
   0x00, 0x00, 0x08, 0x00, 0x10, 0x00, 0x20, 0x00, 0x40, 0x00, 0x20, 0x00,
   0x10, 0x00, 0x08, 0x00, 0x00, 0x00 };
