#define tf_width 8
#define tf_height 8
static unsigned char tf_bits[] = {
   0x00, 0x1e, 0x12, 0x12, 0x7e, 0x50, 0x70, 0x00};
