#define tg_width 10
#define tg_height 10
static unsigned char tg_bits[] = {
   0x1f, 0x00, 0x11, 0x00, 0x11, 0x00, 0x11, 0x00, 0x1f, 0x00, 0xe0, 0x03,
   0x20, 0x02, 0x20, 0x02, 0x20, 0x02, 0xe0, 0x03};
