#define th_width 10
#define th_height 10
static unsigned char th_bits[] = {
   0xff, 0x03, 0x31, 0x02, 0x31, 0x02, 0x31, 0x02, 0x31, 0x02, 0x31, 0x02,
   0x31, 0x02, 0x31, 0x02, 0x31, 0x02, 0xff, 0x03};
