#define tl_width 10
#define tl_height 10
static unsigned char tl_bits[] = {
   0xff, 0x03, 0x31, 0x02, 0x31, 0x02, 0x31, 0x02, 0x3f, 0x02, 0x3f, 0x02,
   0x31, 0x02, 0x31, 0x02, 0x31, 0x02, 0xff, 0x03};
