#define tr_width 10
#define tr_height 10
static unsigned char tr_bits[] = {
   0xff, 0x03, 0x31, 0x02, 0x31, 0x02, 0x31, 0x02, 0xf1, 0x03, 0xf1, 0x03,
   0x31, 0x02, 0x31, 0x02, 0x31, 0x02, 0xff, 0x03};
