#define tt_width 10
#define tt_height 10
static unsigned char tt_bits[] = {
   0xff, 0x03, 0x31, 0x02, 0x31, 0x02, 0x31, 0x02, 0xff, 0x03, 0xff, 0x03,
   0x01, 0x02, 0x01, 0x02, 0x01, 0x02, 0xff, 0x03};
