#define tv_width 10
#define tv_height 10
static unsigned char tv_bits[] = {
   0xff, 0x03, 0x01, 0x02, 0x01, 0x02, 0x01, 0x02, 0xff, 0x03, 0xff, 0x03,
   0x01, 0x02, 0x01, 0x02, 0x01, 0x02, 0xff, 0x03};
