#define chat3_width 9
#define chat3_height 9
static char chat3_bits[] = {
  0x04, 0x00, 0x1A, 0x00, 0x01, 0x00, 0x11, 0x00, 0xA4, 0x00, 0x10, 0x01, 
  0x00, 0x01, 0x10, 0x01, 0xE0, 0x00, };
