#define chat_width 9
#define chat_height 9
static char chat_bits[] = {
  0x47, 0x01, 0x8B, 0x01, 0x43, 0x01, 0x01, 0x01, 0x3F, 0x01, 0xFE, 0x01, 
  0xFB, 0x01, 0x17, 0x01, 0xFF, 0x01, };
