#define paint_width 9
#define paint_height 9
static unsigned char paint_bits[] = {
   0x04, 0x00, 0x1a, 0x00, 0xea, 0x00, 0xce, 0x01, 0x8a, 0x01, 0x41, 0x01,
   0x22, 0x01, 0x14, 0x01, 0x08, 0x00 };
